<?xml version="1.0" encoding="utf-8" standalone="no"?>
<!DOCTYPE svg PUBLIC "-//W3C//DTD SVG 1.1//EN"
  "http://www.w3.org/Graphics/SVG/1.1/DTD/svg11.dtd">
<svg xmlns:xlink="http://www.w3.org/1999/xlink" width="460.8pt" height="345.6pt" viewBox="0 0 460.8 345.6" xmlns="http://www.w3.org/2000/svg" version="1.1">
 <metadata>
  <rdf:RDF xmlns:dc="http://purl.org/dc/elements/1.1/" xmlns:cc="http://creativecommons.org/ns#" xmlns:rdf="http://www.w3.org/1999/02/22-rdf-syntax-ns#">
   <cc:Work>
    <dc:type rdf:resource="http://purl.org/dc/dcmitype/StillImage"/>
    <dc:date>2023-12-13T03:05:39.195157</dc:date>
    <dc:format>image/svg+xml</dc:format>
    <dc:creator>
     <cc:Agent>
      <dc:title>Matplotlib v3.8.1, https://matplotlib.org/</dc:title>
     </cc:Agent>
    </dc:creator>
   </cc:Work>
  </rdf:RDF>
 </metadata>
 <defs>
  <style type="text/css">*{stroke-linejoin: round; stroke-linecap: butt}</style>
 </defs>
 <g id="figure_1">
  <g id="patch_1">
   <path d="M 0 345.6 
L 460.8 345.6 
L 460.8 0 
L 0 0 
z
" style="fill: #ffffff"/>
  </g>
  <g id="axes_1">
   <g id="text_1">
    <!-- 0: â”€â•­|Î¨âŸ©â”€â”€RX(0.48)â”€â”€RY(0.80)â”€â”€RZ(0.02)â”€â•­â—â”€â”€RX(0.37)â”€â”€RY(0.35)â”€â”€RZ(-0.22)â”€â•­â—â”€â”€RX(-0.01)â”€â”€RY(0.12) -->
    <g transform="translate(-83.0175 146.219812) scale(0.12 -0.12)">
     <defs>
      <path id="DejaVuSans-30" d="M 2034 4250 
Q 1547 4250 1301 3770 
Q 1056 3291 1056 2328 
Q 1056 1369 1301 889 
Q 1547 409 2034 409 
Q 2525 409 2770 889 
Q 3016 1369 3016 2328 
Q 3016 3291 2770 3770 
Q 2525 4250 2034 4250 
z
M 2034 4750 
Q 2819 4750 3233 4129 
Q 3647 3509 3647 2328 
Q 3647 1150 3233 529 
Q 2819 -91 2034 -91 
Q 1250 -91 836 529 
Q 422 1150 422 2328 
Q 422 3509 836 4129 
Q 1250 4750 2034 4750 
z
" transform="scale(0.015625)"/>
      <path id="DejaVuSans-3a" d="M 750 794 
L 1409 794 
L 1409 0 
L 750 0 
L 750 794 
z
M 750 3309 
L 1409 3309 
L 1409 2516 
L 750 2516 
L 750 3309 
z
" transform="scale(0.015625)"/>
      <path id="DejaVuSans-20" transform="scale(0.015625)"/>
      <path id="DejaVuSans-2500" d="M -63 1931 
L -63 2469 
L 3916 2469 
L 3916 1931 
L -63 1931 
z
" transform="scale(0.015625)"/>
      <path id="DejaVuSans-256d" d="M 1675 -1600 
L 1675 1150 
Q 1675 1666 1940 2067 
Q 2206 2469 2738 2469 
L 3916 2469 
L 3916 1931 
L 2738 1931 
Q 2459 1931 2317 1734 
Q 2175 1538 2175 1150 
L 2175 -1600 
L 1675 -1600 
z
" transform="scale(0.015625)"/>
      <path id="DejaVuSans-7c" d="M 1344 4891 
L 1344 -1509 
L 813 -1509 
L 813 4891 
L 1344 4891 
z
" transform="scale(0.015625)"/>
      <path id="DejaVuSans-3a8" d="M 2206 0 
Q 2209 419 2206 969 
Q 1538 969 950 1625 
Q 375 2263 359 3388 
L 359 4666 
L 1025 4666 
L 1025 3388 
Q 1025 2506 1431 1994 
Q 1775 1556 2206 1513 
L 2206 4666 
L 2838 4666 
L 2838 1513 
Q 3269 1556 3613 1994 
Q 4019 2506 4019 3388 
L 4019 4666 
L 4684 4666 
L 4684 3388 
Q 4669 2263 4094 1625 
Q 3506 969 2838 969 
Q 2834 744 2838 0 
L 2206 0 
z
" transform="scale(0.015625)"/>
      <path id="DejaVuSans-27e9" d="M 1925 2006 
L 1044 -844 
L 513 -844 
L 1394 2006 
L 513 4856 
L 1044 4856 
L 1925 2006 
z
" transform="scale(0.015625)"/>
      <path id="DejaVuSans-52" d="M 2841 2188 
Q 3044 2119 3236 1894 
Q 3428 1669 3622 1275 
L 4263 0 
L 3584 0 
L 2988 1197 
Q 2756 1666 2539 1819 
Q 2322 1972 1947 1972 
L 1259 1972 
L 1259 0 
L 628 0 
L 628 4666 
L 2053 4666 
Q 2853 4666 3247 4331 
Q 3641 3997 3641 3322 
Q 3641 2881 3436 2590 
Q 3231 2300 2841 2188 
z
M 1259 4147 
L 1259 2491 
L 2053 2491 
Q 2509 2491 2742 2702 
Q 2975 2913 2975 3322 
Q 2975 3731 2742 3939 
Q 2509 4147 2053 4147 
L 1259 4147 
z
" transform="scale(0.015625)"/>
      <path id="DejaVuSans-58" d="M 403 4666 
L 1081 4666 
L 2241 2931 
L 3406 4666 
L 4084 4666 
L 2584 2425 
L 4184 0 
L 3506 0 
L 2194 1984 
L 872 0 
L 191 0 
L 1856 2491 
L 403 4666 
z
" transform="scale(0.015625)"/>
      <path id="DejaVuSans-28" d="M 1984 4856 
Q 1566 4138 1362 3434 
Q 1159 2731 1159 2009 
Q 1159 1288 1364 580 
Q 1569 -128 1984 -844 
L 1484 -844 
Q 1016 -109 783 600 
Q 550 1309 550 2009 
Q 550 2706 781 3412 
Q 1013 4119 1484 4856 
L 1984 4856 
z
" transform="scale(0.015625)"/>
      <path id="DejaVuSans-2e" d="M 684 794 
L 1344 794 
L 1344 0 
L 684 0 
L 684 794 
z
" transform="scale(0.015625)"/>
      <path id="DejaVuSans-34" d="M 2419 4116 
L 825 1625 
L 2419 1625 
L 2419 4116 
z
M 2253 4666 
L 3047 4666 
L 3047 1625 
L 3713 1625 
L 3713 1100 
L 3047 1100 
L 3047 0 
L 2419 0 
L 2419 1100 
L 313 1100 
L 313 1709 
L 2253 4666 
z
" transform="scale(0.015625)"/>
      <path id="DejaVuSans-38" d="M 2034 2216 
Q 1584 2216 1326 1975 
Q 1069 1734 1069 1313 
Q 1069 891 1326 650 
Q 1584 409 2034 409 
Q 2484 409 2743 651 
Q 3003 894 3003 1313 
Q 3003 1734 2745 1975 
Q 2488 2216 2034 2216 
z
M 1403 2484 
Q 997 2584 770 2862 
Q 544 3141 544 3541 
Q 544 4100 942 4425 
Q 1341 4750 2034 4750 
Q 2731 4750 3128 4425 
Q 3525 4100 3525 3541 
Q 3525 3141 3298 2862 
Q 3072 2584 2669 2484 
Q 3125 2378 3379 2068 
Q 3634 1759 3634 1313 
Q 3634 634 3220 271 
Q 2806 -91 2034 -91 
Q 1263 -91 848 271 
Q 434 634 434 1313 
Q 434 1759 690 2068 
Q 947 2378 1403 2484 
z
M 1172 3481 
Q 1172 3119 1398 2916 
Q 1625 2713 2034 2713 
Q 2441 2713 2670 2916 
Q 2900 3119 2900 3481 
Q 2900 3844 2670 4047 
Q 2441 4250 2034 4250 
Q 1625 4250 1398 4047 
Q 1172 3844 1172 3481 
z
" transform="scale(0.015625)"/>
      <path id="DejaVuSans-29" d="M 513 4856 
L 1013 4856 
Q 1481 4119 1714 3412 
Q 1947 2706 1947 2009 
Q 1947 1309 1714 600 
Q 1481 -109 1013 -844 
L 513 -844 
Q 928 -128 1133 580 
Q 1338 1288 1338 2009 
Q 1338 2731 1133 3434 
Q 928 4138 513 4856 
z
" transform="scale(0.015625)"/>
      <path id="DejaVuSans-59" d="M -13 4666 
L 666 4666 
L 1959 2747 
L 3244 4666 
L 3922 4666 
L 2272 2222 
L 2272 0 
L 1638 0 
L 1638 2222 
L -13 4666 
z
" transform="scale(0.015625)"/>
      <path id="DejaVuSans-5a" d="M 359 4666 
L 4025 4666 
L 4025 4184 
L 1075 531 
L 4097 531 
L 4097 0 
L 288 0 
L 288 481 
L 3238 4134 
L 359 4134 
L 359 4666 
z
" transform="scale(0.015625)"/>
      <path id="DejaVuSans-32" d="M 1228 531 
L 3431 531 
L 3431 0 
L 469 0 
L 469 531 
Q 828 903 1448 1529 
Q 2069 2156 2228 2338 
Q 2531 2678 2651 2914 
Q 2772 3150 2772 3378 
Q 2772 3750 2511 3984 
Q 2250 4219 1831 4219 
Q 1534 4219 1204 4116 
Q 875 4013 500 3803 
L 500 4441 
Q 881 4594 1212 4672 
Q 1544 4750 1819 4750 
Q 2544 4750 2975 4387 
Q 3406 4025 3406 3419 
Q 3406 3131 3298 2873 
Q 3191 2616 2906 2266 
Q 2828 2175 2409 1742 
Q 1991 1309 1228 531 
z
" transform="scale(0.015625)"/>
      <path id="DejaVuSans-25cf" d="M 350 1656 
Q 350 2309 678 2878 
Q 1003 3444 1572 3772 
Q 2138 4100 2794 4100 
Q 3447 4100 4013 3772 
Q 4581 3444 4906 2878 
Q 5234 2309 5234 1656 
Q 5234 1003 4906 434 
Q 4581 -131 4013 -459 
Q 3447 -788 2794 -788 
Q 2138 -788 1572 -459 
Q 1003 -131 678 434 
Q 350 1003 350 1656 
z
" transform="scale(0.015625)"/>
      <path id="DejaVuSans-33" d="M 2597 2516 
Q 3050 2419 3304 2112 
Q 3559 1806 3559 1356 
Q 3559 666 3084 287 
Q 2609 -91 1734 -91 
Q 1441 -91 1130 -33 
Q 819 25 488 141 
L 488 750 
Q 750 597 1062 519 
Q 1375 441 1716 441 
Q 2309 441 2620 675 
Q 2931 909 2931 1356 
Q 2931 1769 2642 2001 
Q 2353 2234 1838 2234 
L 1294 2234 
L 1294 2753 
L 1863 2753 
Q 2328 2753 2575 2939 
Q 2822 3125 2822 3475 
Q 2822 3834 2567 4026 
Q 2313 4219 1838 4219 
Q 1578 4219 1281 4162 
Q 984 4106 628 3988 
L 628 4550 
Q 988 4650 1302 4700 
Q 1616 4750 1894 4750 
Q 2613 4750 3031 4423 
Q 3450 4097 3450 3541 
Q 3450 3153 3228 2886 
Q 3006 2619 2597 2516 
z
" transform="scale(0.015625)"/>
      <path id="DejaVuSans-37" d="M 525 4666 
L 3525 4666 
L 3525 4397 
L 1831 0 
L 1172 0 
L 2766 4134 
L 525 4134 
L 525 4666 
z
" transform="scale(0.015625)"/>
      <path id="DejaVuSans-35" d="M 691 4666 
L 3169 4666 
L 3169 4134 
L 1269 4134 
L 1269 2991 
Q 1406 3038 1543 3061 
Q 1681 3084 1819 3084 
Q 2600 3084 3056 2656 
Q 3513 2228 3513 1497 
Q 3513 744 3044 326 
Q 2575 -91 1722 -91 
Q 1428 -91 1123 -41 
Q 819 9 494 109 
L 494 744 
Q 775 591 1075 516 
Q 1375 441 1709 441 
Q 2250 441 2565 725 
Q 2881 1009 2881 1497 
Q 2881 1984 2565 2268 
Q 2250 2553 1709 2553 
Q 1456 2553 1204 2497 
Q 953 2441 691 2322 
L 691 4666 
z
" transform="scale(0.015625)"/>
      <path id="DejaVuSans-2d" d="M 313 2009 
L 1997 2009 
L 1997 1497 
L 313 1497 
L 313 2009 
z
" transform="scale(0.015625)"/>
      <path id="DejaVuSans-31" d="M 794 531 
L 1825 531 
L 1825 4091 
L 703 3866 
L 703 4441 
L 1819 4666 
L 2450 4666 
L 2450 531 
L 3481 531 
L 3481 0 
L 794 0 
L 794 531 
z
" transform="scale(0.015625)"/>
     </defs>
     <use xlink:href="#DejaVuSans-30"/>
     <use xlink:href="#DejaVuSans-3a" x="63.623047"/>
     <use xlink:href="#DejaVuSans-20" x="97.314453"/>
     <use xlink:href="#DejaVuSans-2500" x="129.101562"/>
     <use xlink:href="#DejaVuSans-256d" x="189.306641"/>
     <use xlink:href="#DejaVuSans-7c" x="249.511719"/>
     <use xlink:href="#DejaVuSans-3a8" x="283.203125"/>
     <use xlink:href="#DejaVuSans-27e9" x="361.914062"/>
     <use xlink:href="#DejaVuSans-2500" x="400.927734"/>
     <use xlink:href="#DejaVuSans-2500" x="461.132812"/>
     <use xlink:href="#DejaVuSans-52" x="521.337891"/>
     <use xlink:href="#DejaVuSans-58" x="590.820312"/>
     <use xlink:href="#DejaVuSans-28" x="659.326172"/>
     <use xlink:href="#DejaVuSans-30" x="698.339844"/>
     <use xlink:href="#DejaVuSans-2e" x="761.962891"/>
     <use xlink:href="#DejaVuSans-34" x="793.75"/>
     <use xlink:href="#DejaVuSans-38" x="857.373047"/>
     <use xlink:href="#DejaVuSans-29" x="920.996094"/>
     <use xlink:href="#DejaVuSans-2500" x="960.009766"/>
     <use xlink:href="#DejaVuSans-2500" x="1020.214844"/>
     <use xlink:href="#DejaVuSans-52" x="1080.419922"/>
     <use xlink:href="#DejaVuSans-59" x="1143.527344"/>
     <use xlink:href="#DejaVuSans-28" x="1204.611328"/>
     <use xlink:href="#DejaVuSans-30" x="1243.625"/>
     <use xlink:href="#DejaVuSans-2e" x="1307.248047"/>
     <use xlink:href="#DejaVuSans-38" x="1339.035156"/>
     <use xlink:href="#DejaVuSans-30" x="1402.658203"/>
     <use xlink:href="#DejaVuSans-29" x="1466.28125"/>
     <use xlink:href="#DejaVuSans-2500" x="1505.294922"/>
     <use xlink:href="#DejaVuSans-2500" x="1565.5"/>
     <use xlink:href="#DejaVuSans-52" x="1625.705078"/>
     <use xlink:href="#DejaVuSans-5a" x="1695.1875"/>
     <use xlink:href="#DejaVuSans-28" x="1763.693359"/>
     <use xlink:href="#DejaVuSans-30" x="1802.707031"/>
     <use xlink:href="#DejaVuSans-2e" x="1866.330078"/>
     <use xlink:href="#DejaVuSans-30" x="1898.117188"/>
     <use xlink:href="#DejaVuSans-32" x="1961.740234"/>
     <use xlink:href="#DejaVuSans-29" x="2025.363281"/>
     <use xlink:href="#DejaVuSans-2500" x="2064.376953"/>
     <use xlink:href="#DejaVuSans-256d" x="2124.582031"/>
     <use xlink:href="#DejaVuSans-25cf" x="2184.787109"/>
     <use xlink:href="#DejaVuSans-2500" x="2272.042969"/>
     <use xlink:href="#DejaVuSans-2500" x="2332.248047"/>
     <use xlink:href="#DejaVuSans-52" x="2392.453125"/>
     <use xlink:href="#DejaVuSans-58" x="2461.935547"/>
     <use xlink:href="#DejaVuSans-28" x="2530.441406"/>
     <use xlink:href="#DejaVuSans-30" x="2569.455078"/>
     <use xlink:href="#DejaVuSans-2e" x="2633.078125"/>
     <use xlink:href="#DejaVuSans-33" x="2664.865234"/>
     <use xlink:href="#DejaVuSans-37" x="2728.488281"/>
     <use xlink:href="#DejaVuSans-29" x="2792.111328"/>
     <use xlink:href="#DejaVuSans-2500" x="2831.125"/>
     <use xlink:href="#DejaVuSans-2500" x="2891.330078"/>
     <use xlink:href="#DejaVuSans-52" x="2951.535156"/>
     <use xlink:href="#DejaVuSans-59" x="3014.642578"/>
     <use xlink:href="#DejaVuSans-28" x="3075.726562"/>
     <use xlink:href="#DejaVuSans-30" x="3114.740234"/>
     <use xlink:href="#DejaVuSans-2e" x="3178.363281"/>
     <use xlink:href="#DejaVuSans-33" x="3210.150391"/>
     <use xlink:href="#DejaVuSans-35" x="3273.773438"/>
     <use xlink:href="#DejaVuSans-29" x="3337.396484"/>
     <use xlink:href="#DejaVuSans-2500" x="3376.410156"/>
     <use xlink:href="#DejaVuSans-2500" x="3436.615234"/>
     <use xlink:href="#DejaVuSans-52" x="3496.820312"/>
     <use xlink:href="#DejaVuSans-5a" x="3566.302734"/>
     <use xlink:href="#DejaVuSans-28" x="3634.808594"/>
     <use xlink:href="#DejaVuSans-2d" x="3673.822266"/>
     <use xlink:href="#DejaVuSans-30" x="3709.90625"/>
     <use xlink:href="#DejaVuSans-2e" x="3773.529297"/>
     <use xlink:href="#DejaVuSans-32" x="3805.316406"/>
     <use xlink:href="#DejaVuSans-32" x="3868.939453"/>
     <use xlink:href="#DejaVuSans-29" x="3932.5625"/>
     <use xlink:href="#DejaVuSans-2500" x="3971.576172"/>
     <use xlink:href="#DejaVuSans-256d" x="4031.78125"/>
     <use xlink:href="#DejaVuSans-25cf" x="4091.986328"/>
     <use xlink:href="#DejaVuSans-2500" x="4179.242188"/>
     <use xlink:href="#DejaVuSans-2500" x="4239.447266"/>
     <use xlink:href="#DejaVuSans-52" x="4299.652344"/>
     <use xlink:href="#DejaVuSans-58" x="4369.134766"/>
     <use xlink:href="#DejaVuSans-28" x="4437.640625"/>
     <use xlink:href="#DejaVuSans-2d" x="4476.654297"/>
     <use xlink:href="#DejaVuSans-30" x="4512.738281"/>
     <use xlink:href="#DejaVuSans-2e" x="4576.361328"/>
     <use xlink:href="#DejaVuSans-30" x="4608.148438"/>
     <use xlink:href="#DejaVuSans-31" x="4671.771484"/>
     <use xlink:href="#DejaVuSans-29" x="4735.394531"/>
     <use xlink:href="#DejaVuSans-2500" x="4774.408203"/>
     <use xlink:href="#DejaVuSans-2500" x="4834.613281"/>
     <use xlink:href="#DejaVuSans-52" x="4894.818359"/>
     <use xlink:href="#DejaVuSans-59" x="4957.925781"/>
     <use xlink:href="#DejaVuSans-28" x="5019.009766"/>
     <use xlink:href="#DejaVuSans-30" x="5058.023438"/>
     <use xlink:href="#DejaVuSans-2e" x="5121.646484"/>
     <use xlink:href="#DejaVuSans-31" x="5153.433594"/>
     <use xlink:href="#DejaVuSans-32" x="5217.056641"/>
     <use xlink:href="#DejaVuSans-29" x="5280.679688"/>
    </g>
    <!-- 1: â”€â•°|Î¨âŸ©â”€â”€RX(0.85)â”€â”€RY(0.44)â”€â”€RZ(0.71)â”€â•°Xâ”€â”€RX(0.97)â”€â”€RY(0.99)â”€â”€RZ(-0.31)â”€â•°Xâ”€â”€RX(-0.05)â”€â”€RY(0.29) -->
    <g transform="translate(-80.7675 162.726562) scale(0.12 -0.12)">
     <defs>
      <path id="DejaVuSans-2570" d="M 3916 1931 
L 2738 1931 
Q 2213 1931 1944 2328 
Q 1675 2725 1675 3250 
L 1675 6003 
L 2175 6003 
L 2175 3250 
Q 2175 2863 2317 2666 
Q 2459 2469 2738 2469 
L 3916 2469 
L 3916 1931 
z
" transform="scale(0.015625)"/>
      <path id="DejaVuSans-39" d="M 703 97 
L 703 672 
Q 941 559 1184 500 
Q 1428 441 1663 441 
Q 2288 441 2617 861 
Q 2947 1281 2994 2138 
Q 2813 1869 2534 1725 
Q 2256 1581 1919 1581 
Q 1219 1581 811 2004 
Q 403 2428 403 3163 
Q 403 3881 828 4315 
Q 1253 4750 1959 4750 
Q 2769 4750 3195 4129 
Q 3622 3509 3622 2328 
Q 3622 1225 3098 567 
Q 2575 -91 1691 -91 
Q 1453 -91 1209 -44 
Q 966 3 703 97 
z
M 1959 2075 
Q 2384 2075 2632 2365 
Q 2881 2656 2881 3163 
Q 2881 3666 2632 3958 
Q 2384 4250 1959 4250 
Q 1534 4250 1286 3958 
Q 1038 3666 1038 3163 
Q 1038 2656 1286 2365 
Q 1534 2075 1959 2075 
z
" transform="scale(0.015625)"/>
     </defs>
     <use xlink:href="#DejaVuSans-31"/>
     <use xlink:href="#DejaVuSans-3a" x="63.623047"/>
     <use xlink:href="#DejaVuSans-20" x="97.314453"/>
     <use xlink:href="#DejaVuSans-2500" x="129.101562"/>
     <use xlink:href="#DejaVuSans-2570" x="189.306641"/>
     <use xlink:href="#DejaVuSans-7c" x="249.511719"/>
     <use xlink:href="#DejaVuSans-3a8" x="283.203125"/>
     <use xlink:href="#DejaVuSans-27e9" x="361.914062"/>
     <use xlink:href="#DejaVuSans-2500" x="400.927734"/>
     <use xlink:href="#DejaVuSans-2500" x="461.132812"/>
     <use xlink:href="#DejaVuSans-52" x="521.337891"/>
     <use xlink:href="#DejaVuSans-58" x="590.820312"/>
     <use xlink:href="#DejaVuSans-28" x="659.326172"/>
     <use xlink:href="#DejaVuSans-30" x="698.339844"/>
     <use xlink:href="#DejaVuSans-2e" x="761.962891"/>
     <use xlink:href="#DejaVuSans-38" x="793.75"/>
     <use xlink:href="#DejaVuSans-35" x="857.373047"/>
     <use xlink:href="#DejaVuSans-29" x="920.996094"/>
     <use xlink:href="#DejaVuSans-2500" x="960.009766"/>
     <use xlink:href="#DejaVuSans-2500" x="1020.214844"/>
     <use xlink:href="#DejaVuSans-52" x="1080.419922"/>
     <use xlink:href="#DejaVuSans-59" x="1143.527344"/>
     <use xlink:href="#DejaVuSans-28" x="1204.611328"/>
     <use xlink:href="#DejaVuSans-30" x="1243.625"/>
     <use xlink:href="#DejaVuSans-2e" x="1307.248047"/>
     <use xlink:href="#DejaVuSans-34" x="1339.035156"/>
     <use xlink:href="#DejaVuSans-34" x="1402.658203"/>
     <use xlink:href="#DejaVuSans-29" x="1466.28125"/>
     <use xlink:href="#DejaVuSans-2500" x="1505.294922"/>
     <use xlink:href="#DejaVuSans-2500" x="1565.5"/>
     <use xlink:href="#DejaVuSans-52" x="1625.705078"/>
     <use xlink:href="#DejaVuSans-5a" x="1695.1875"/>
     <use xlink:href="#DejaVuSans-28" x="1763.693359"/>
     <use xlink:href="#DejaVuSans-30" x="1802.707031"/>
     <use xlink:href="#DejaVuSans-2e" x="1866.330078"/>
     <use xlink:href="#DejaVuSans-37" x="1898.117188"/>
     <use xlink:href="#DejaVuSans-31" x="1961.740234"/>
     <use xlink:href="#DejaVuSans-29" x="2025.363281"/>
     <use xlink:href="#DejaVuSans-2500" x="2064.376953"/>
     <use xlink:href="#DejaVuSans-2570" x="2124.582031"/>
     <use xlink:href="#DejaVuSans-58" x="2184.787109"/>
     <use xlink:href="#DejaVuSans-2500" x="2253.292969"/>
     <use xlink:href="#DejaVuSans-2500" x="2313.498047"/>
     <use xlink:href="#DejaVuSans-52" x="2373.703125"/>
     <use xlink:href="#DejaVuSans-58" x="2443.185547"/>
     <use xlink:href="#DejaVuSans-28" x="2511.691406"/>
     <use xlink:href="#DejaVuSans-30" x="2550.705078"/>
     <use xlink:href="#DejaVuSans-2e" x="2614.328125"/>
     <use xlink:href="#DejaVuSans-39" x="2646.115234"/>
     <use xlink:href="#DejaVuSans-37" x="2709.738281"/>
     <use xlink:href="#DejaVuSans-29" x="2773.361328"/>
     <use xlink:href="#DejaVuSans-2500" x="2812.375"/>
     <use xlink:href="#DejaVuSans-2500" x="2872.580078"/>
     <use xlink:href="#DejaVuSans-52" x="2932.785156"/>
     <use xlink:href="#DejaVuSans-59" x="2995.892578"/>
     <use xlink:href="#DejaVuSans-28" x="3056.976562"/>
     <use xlink:href="#DejaVuSans-30" x="3095.990234"/>
     <use xlink:href="#DejaVuSans-2e" x="3159.613281"/>
     <use xlink:href="#DejaVuSans-39" x="3191.400391"/>
     <use xlink:href="#DejaVuSans-39" x="3255.023438"/>
     <use xlink:href="#DejaVuSans-29" x="3318.646484"/>
     <use xlink:href="#DejaVuSans-2500" x="3357.660156"/>
     <use xlink:href="#DejaVuSans-2500" x="3417.865234"/>
     <use xlink:href="#DejaVuSans-52" x="3478.070312"/>
     <use xlink:href="#DejaVuSans-5a" x="3547.552734"/>
     <use xlink:href="#DejaVuSans-28" x="3616.058594"/>
     <use xlink:href="#DejaVuSans-2d" x="3655.072266"/>
     <use xlink:href="#DejaVuSans-30" x="3691.15625"/>
     <use xlink:href="#DejaVuSans-2e" x="3754.779297"/>
     <use xlink:href="#DejaVuSans-33" x="3786.566406"/>
     <use xlink:href="#DejaVuSans-31" x="3850.189453"/>
     <use xlink:href="#DejaVuSans-29" x="3913.8125"/>
     <use xlink:href="#DejaVuSans-2500" x="3952.826172"/>
     <use xlink:href="#DejaVuSans-2570" x="4013.03125"/>
     <use xlink:href="#DejaVuSans-58" x="4073.236328"/>
     <use xlink:href="#DejaVuSans-2500" x="4141.742188"/>
     <use xlink:href="#DejaVuSans-2500" x="4201.947266"/>
     <use xlink:href="#DejaVuSans-52" x="4262.152344"/>
     <use xlink:href="#DejaVuSans-58" x="4331.634766"/>
     <use xlink:href="#DejaVuSans-28" x="4400.140625"/>
     <use xlink:href="#DejaVuSans-2d" x="4439.154297"/>
     <use xlink:href="#DejaVuSans-30" x="4475.238281"/>
     <use xlink:href="#DejaVuSans-2e" x="4538.861328"/>
     <use xlink:href="#DejaVuSans-30" x="4570.648438"/>
     <use xlink:href="#DejaVuSans-35" x="4634.271484"/>
     <use xlink:href="#DejaVuSans-29" x="4697.894531"/>
     <use xlink:href="#DejaVuSans-2500" x="4736.908203"/>
     <use xlink:href="#DejaVuSans-2500" x="4797.113281"/>
     <use xlink:href="#DejaVuSans-52" x="4857.318359"/>
     <use xlink:href="#DejaVuSans-59" x="4920.425781"/>
     <use xlink:href="#DejaVuSans-28" x="4981.509766"/>
     <use xlink:href="#DejaVuSans-30" x="5020.523438"/>
     <use xlink:href="#DejaVuSans-2e" x="5084.146484"/>
     <use xlink:href="#DejaVuSans-32" x="5115.933594"/>
     <use xlink:href="#DejaVuSans-39" x="5179.556641"/>
     <use xlink:href="#DejaVuSans-29" x="5243.179688"/>
    </g>
    <!--  -->
    <g transform="translate(236.16 176.497687) scale(0.12 -0.12)"/>
    <!-- â”€â”€â”€RZ(0.39)â”€â•­â—â”€â”¤ â•­&lt;ð“—&gt; -->
    <g transform="translate(160.14375 192.500062) scale(0.12 -0.12)">
     <defs>
      <path id="DejaVuSans-2524" d="M 1675 -1600 
L 1675 1931 
L -63 1931 
L -63 2469 
L 1675 2469 
L 1675 6003 
L 2175 6003 
L 2175 -1600 
L 1675 -1600 
z
" transform="scale(0.015625)"/>
      <path id="DejaVuSans-3c" d="M 4684 3150 
L 1459 2003 
L 4684 863 
L 4684 294 
L 678 1747 
L 678 2266 
L 4684 3719 
L 4684 3150 
z
" transform="scale(0.015625)"/>
      <path id="DejaVuSans-1d4d7" d="M 319 -1131 
L 319 4513 
L 3519 4513 
L 3519 -1131 
L 319 -1131 
z
M 678 -775 
L 3163 -775 
L 3163 4153 
L 678 4153 
L 678 -775 
z
" transform="scale(0.015625)"/>
      <path id="DejaVuSans-3e" d="M 678 3150 
L 678 3719 
L 4684 2266 
L 4684 1747 
L 678 294 
L 678 863 
L 3897 2003 
L 678 3150 
z
" transform="scale(0.015625)"/>
     </defs>
     <use xlink:href="#DejaVuSans-2500"/>
     <use xlink:href="#DejaVuSans-2500" x="60.205078"/>
     <use xlink:href="#DejaVuSans-2500" x="120.410156"/>
     <use xlink:href="#DejaVuSans-52" x="180.615234"/>
     <use xlink:href="#DejaVuSans-5a" x="250.097656"/>
     <use xlink:href="#DejaVuSans-28" x="318.603516"/>
     <use xlink:href="#DejaVuSans-30" x="357.617188"/>
     <use xlink:href="#DejaVuSans-2e" x="421.240234"/>
     <use xlink:href="#DejaVuSans-33" x="453.027344"/>
     <use xlink:href="#DejaVuSans-39" x="516.650391"/>
     <use xlink:href="#DejaVuSans-29" x="580.273438"/>
     <use xlink:href="#DejaVuSans-2500" x="619.287109"/>
     <use xlink:href="#DejaVuSans-256d" x="679.492188"/>
     <use xlink:href="#DejaVuSans-25cf" x="739.697266"/>
     <use xlink:href="#DejaVuSans-2500" x="826.953125"/>
     <use xlink:href="#DejaVuSans-2524" x="887.158203"/>
     <use xlink:href="#DejaVuSans-20" x="947.363281"/>
     <use xlink:href="#DejaVuSans-256d" x="979.150391"/>
     <use xlink:href="#DejaVuSans-3c" x="1039.355469"/>
     <use xlink:href="#DejaVuSans-1d4d7" x="1123.144531"/>
     <use xlink:href="#DejaVuSans-3e" x="1183.154297"/>
    </g>
    <!-- â”€â”€â”€RZ(0.12)â”€â•°Xâ”€â”¤ â•°&lt;ð“—&gt; -->
    <g transform="translate(161.26875 209.006812) scale(0.12 -0.12)">
     <use xlink:href="#DejaVuSans-2500"/>
     <use xlink:href="#DejaVuSans-2500" x="60.205078"/>
     <use xlink:href="#DejaVuSans-2500" x="120.410156"/>
     <use xlink:href="#DejaVuSans-52" x="180.615234"/>
     <use xlink:href="#DejaVuSans-5a" x="250.097656"/>
     <use xlink:href="#DejaVuSans-28" x="318.603516"/>
     <use xlink:href="#DejaVuSans-30" x="357.617188"/>
     <use xlink:href="#DejaVuSans-2e" x="421.240234"/>
     <use xlink:href="#DejaVuSans-31" x="453.027344"/>
     <use xlink:href="#DejaVuSans-32" x="516.650391"/>
     <use xlink:href="#DejaVuSans-29" x="580.273438"/>
     <use xlink:href="#DejaVuSans-2500" x="619.287109"/>
     <use xlink:href="#DejaVuSans-2570" x="679.492188"/>
     <use xlink:href="#DejaVuSans-58" x="739.697266"/>
     <use xlink:href="#DejaVuSans-2500" x="808.203125"/>
     <use xlink:href="#DejaVuSans-2524" x="868.408203"/>
     <use xlink:href="#DejaVuSans-20" x="928.613281"/>
     <use xlink:href="#DejaVuSans-2570" x="960.400391"/>
     <use xlink:href="#DejaVuSans-3c" x="1020.605469"/>
     <use xlink:href="#DejaVuSans-1d4d7" x="1104.394531"/>
     <use xlink:href="#DejaVuSans-3e" x="1164.404297"/>
    </g>
   </g>
  </g>
 </g>
</svg>
